<?xml version="1.0" encoding="utf-8"?>
<svg xmlns="http://www.w3.org/2000/svg" width="777.5" height="541.666" viewBox="0 0 777.5 541.666">
  <g id="ui-ux-design-services" transform="translate(-23.981 -9.825)">
    <path id="bg" d="M797.838,492.561c0,30.391-32.3,48.435-78.142,58.93H280.382C169.984,529.659,32.57,475.172,32.57,383.558,32.57,260.542,176.72,199.8,326.225,199.8,495.952,199.8,489.515,9.825,668.6,9.825c129.239,0,29.579,168.175,29.579,277.192S797.838,399.124,797.838,492.561Z" transform="translate(3.643)" fill="#ecf4ff"/>
    <g id="wall_line" data-name="wall line" transform="translate(249.383 400.493)">
      <g id="Group_33776" data-name="Group 33776">
        <path id="Path_52082" data-name="Path 52082" d="M339.8,285.57H182.967a.712.712,0,1,1,0-1.424H339.8a.712.712,0,0,1,0,1.424Z" transform="translate(-182.255 -284.146)" fill="#bcdafe"/>
      </g>
      <g id="Group_33777" data-name="Group 33777" transform="translate(20.737 65.528)">
        <path id="Path_52083" data-name="Path 52083" d="M325.875,331.583H197.528a.712.712,0,1,1,0-1.424H325.875a.712.712,0,1,1,0,1.424Z" transform="translate(-196.816 -330.159)" fill="#bcdafe"/>
      </g>
      <g id="Group_33778" data-name="Group 33778" transform="translate(23.212 34.2)">
        <path id="Path_52084" data-name="Path 52084" d="M276.63,309.585H199.266a.712.712,0,1,1,0-1.424H276.63a.712.712,0,1,1,0,1.424Z" transform="translate(-198.554 -308.161)" fill="#bcdafe"/>
      </g>
      <g id="Group_33779" data-name="Group 33779" transform="translate(48.239 0.001)">
        <path id="Path_52085" data-name="Path 52085" d="M216.84,319.77a.712.712,0,0,1-.712-.712v-34.2a.712.712,0,1,1,1.424,0v34.2A.712.712,0,0,1,216.84,319.77Z" transform="translate(-216.128 -284.147)" fill="#bcdafe"/>
      </g>
      <g id="Group_33780" data-name="Group 33780" transform="translate(84.911 34.2)">
        <path id="Path_52086" data-name="Path 52086" d="M242.59,330.692a.712.712,0,0,1-.712-.712V308.873a.712.712,0,1,1,1.424,0V329.98A.712.712,0,0,1,242.59,330.692Z" transform="translate(-241.878 -308.161)" fill="#bcdafe"/>
      </g>
    </g>
    <g id="window" transform="translate(82.07 83.474)">
      <g id="Group_33781" data-name="Group 33781">
        <path id="Path_52087" data-name="Path 52087" d="M216.781,258.131H65.482a.712.712,0,0,1-.712-.712V62.252a.712.712,0,0,1,.712-.712h151.3a.712.712,0,0,1,.712.712V257.418A.712.712,0,0,1,216.781,258.131ZM66.194,256.706H216.069V62.964H66.194Z" transform="translate(-64.77 -61.54)" fill="#8cbfff"/>
      </g>
      <g id="Group_33782" data-name="Group 33782" transform="translate(75.65)">
        <path id="Path_52088" data-name="Path 52088" d="M118.6,258.131a.712.712,0,0,1-.712-.712V62.252a.712.712,0,1,1,1.424,0V257.418A.712.712,0,0,1,118.6,258.131Z" transform="translate(-117.89 -61.54)" fill="#8cbfff"/>
      </g>
      <g id="Group_33783" data-name="Group 33783" transform="translate(0 101.349)">
        <path id="Path_52089" data-name="Path 52089" d="M216.781,134.13H65.482a.712.712,0,1,1,0-1.424h151.3a.712.712,0,1,1,0,1.424Z" transform="translate(-64.77 -132.706)" fill="#8cbfff"/>
      </g>
      <rect id="Rectangle_4675" data-name="Rectangle 4675" width="151.301" height="14.654" transform="translate(0.711 181.224)" fill="#8cbfff"/>
      <g id="Group_33784" data-name="Group 33784" transform="translate(15.799 27.468)">
        <path id="Path_52090" data-name="Path 52090" d="M76.576,107.659a.711.711,0,0,1-.5-1.215L101.48,81.036a.712.712,0,1,1,1.007,1.007L77.08,107.451A.709.709,0,0,1,76.576,107.659Z" transform="translate(-75.864 -80.828)" fill="#8cbfff"/>
      </g>
      <g id="Group_33785" data-name="Group 33785" transform="translate(13.99 28.645)">
        <path id="Path_52091" data-name="Path 52091" d="M75.306,129.839a.711.711,0,0,1-.5-1.215l46.763-46.763a.712.712,0,1,1,1.007,1.007L75.809,129.631A.71.71,0,0,1,75.306,129.839Z" transform="translate(-74.594 -81.654)" fill="#8cbfff"/>
      </g>
    </g>
    <g id="plant" transform="translate(23.981 289.177)">
      <g id="Group_33786" data-name="Group 33786" transform="translate(71.159 104.082)">
        <path id="Path_52092" data-name="Path 52092" d="M75.671,335.677c6.981-27.627,33.044-55.105,33.309-55.38l-1.286-1.23c-.265.278-26.65,28.087-33.746,56.179Z" transform="translate(-73.948 -279.067)" fill="#08a078"/>
      </g>
      <g id="Group_33787" data-name="Group 33787" transform="translate(37.433 91.365)">
        <path id="Path_52093" data-name="Path 52093" d="M83.964,353.539l1.78-.1c-4.144-76.359-33.871-83.059-35.13-83.306l-.347,1.746C50.558,271.941,79.906,278.769,83.964,353.539Z" transform="translate(-50.266 -270.137)" fill="#08a078"/>
      </g>
      <g id="Group_33788" data-name="Group 33788" transform="translate(70.152 36.473)">
        <path id="Path_52094" data-name="Path 52094" d="M74.222,376.729l1.773-.14C70.144,300.512,92.49,232.835,92.716,232.157l-1.69-.564C90.8,232.272,68.339,300.294,74.222,376.729Z" transform="translate(-73.24 -231.593)" fill="#08a078"/>
      </g>
      <path id="Path_52095" data-name="Path 52095" d="M89.7,399.872h0a39.163,39.163,0,0,1-39.163-39.163V328.666h78.327v32.043A39.163,39.163,0,0,1,89.7,399.872Z" transform="translate(-12.717 -153.949)" fill="#c8dfff"/>
      <rect id="Rectangle_4676" data-name="Rectangle 4676" width="78.327" height="14.241" transform="translate(37.82 160.478)" fill="#b0d3ff"/>
      <path id="Path_52096" data-name="Path 52096" d="M93.027,301.029c35.257-6.421,41.479-17.246,47.113-51.948C102.178,255.25,98.631,276.07,93.027,301.029Z" transform="translate(5.303 -187.703)" fill="#0dbf95"/>
      <path id="Path_52097" data-name="Path 52097" d="M82.139,273.891c28.212-22.1,28.678-34.576,17.505-67.909C68.922,229.117,75.477,249.194,82.139,273.891Z" transform="translate(-1.683 -205.982)" fill="#0dbf95"/>
      <path id="Path_52098" data-name="Path 52098" d="M82.574,301.882c-6.053-41.32-18.408-49-58.593-56.965C29.633,289.374,53.735,294.347,82.574,301.882Z" transform="translate(-23.981 -189.469)" fill="#0dbf95"/>
    </g>
    <g id="white_board" data-name="white board" transform="translate(298.259 80.786)">
      <g id="Group_33789" data-name="Group 33789" transform="translate(42.723 270.583)">
        <path id="Path_52099" data-name="Path 52099" d="M249.426,437.638a2.916,2.916,0,0,1-.443-.034,2.847,2.847,0,0,1-2.374-3.254l28.483-182.288a2.848,2.848,0,1,1,5.628.88L252.238,435.23A2.851,2.851,0,0,1,249.426,437.638Z" transform="translate(-246.575 -249.653)" fill="#094bb7"/>
      </g>
      <g id="Group_33790" data-name="Group 33790" transform="translate(150.956 270.582)">
        <path id="Path_52100" data-name="Path 52100" d="M353.9,437.638a2.851,2.851,0,0,1-2.811-2.41L322.608,252.941a2.848,2.848,0,0,1,5.628-.88l28.483,182.288a2.85,2.85,0,0,1-2.374,3.254A2.742,2.742,0,0,1,353.9,437.638Z" transform="translate(-322.574 -249.651)" fill="#094bb7"/>
      </g>
      <path id="Path_52101" data-name="Path 52101" d="M433.042,333.085H227.968a11.394,11.394,0,0,1-11.393-11.393V71.046a11.394,11.394,0,0,1,11.393-11.393H433.042a11.394,11.394,0,0,1,11.393,11.393V321.692A11.394,11.394,0,0,1,433.042,333.085Z" transform="translate(-216.575 -59.653)" fill="#b0d3ff"/>
      <g id="Group_33792" data-name="Group 33792" transform="translate(11.464 126.46)">
        <path id="Path_52102" data-name="Path 52102" d="M224.625,148.451v23.568h14.241l6.053-4.984V148.451Z" transform="translate(-224.625 -148.451)" fill="#0dbf95"/>
        <g id="Group_33791" data-name="Group 33791" transform="translate(1.468 6.888)">
          <path id="Path_52103" data-name="Path 52103" d="M233.71,156.844a4.162,4.162,0,0,1-2.951-1.22,2.751,2.751,0,0,0-3.888,0,.712.712,0,0,1-1.007-1.007,4.178,4.178,0,0,1,5.9,0,2.751,2.751,0,0,0,3.888,0l.108-.108a4.178,4.178,0,0,1,5.9,0l.474.474a.713.713,0,0,1-1.008,1.008l-.474-.474a2.753,2.753,0,0,0-3.888,0l-.108.108A4.164,4.164,0,0,1,233.71,156.844Z" transform="translate(-225.656 -153.288)" fill="#00236e"/>
        </g>
        <path id="Path_52104" data-name="Path 52104" d="M240.678,161.5h-4.13a1.424,1.424,0,0,0-1.411,1.232l-.511,3.753Z" transform="translate(-220.384 -142.917)" fill="#08a078"/>
      </g>
      <g id="Group_33793" data-name="Group 33793" transform="translate(59.691 351.281)">
        <path id="Path_52105" data-name="Path 52105" d="M365.065,310.122H260.392a1.9,1.9,0,0,1,0-3.805H365.065a1.9,1.9,0,0,1,0,3.805Z" transform="translate(-258.489 -306.317)" fill="#094bb7"/>
      </g>
      <rect id="Rectangle_4677" data-name="Rectangle 4677" width="151.46" height="89.415" transform="translate(33.478 24.231)" fill="#f8fbff"/>
      <rect id="Rectangle_4678" data-name="Rectangle 4678" width="151.46" height="89.415" transform="translate(33.478 148.831)" fill="#f8fbff"/>
      <g id="Group_33794" data-name="Group 33794" transform="translate(46.059 42.98)">
        <path id="Path_52106" data-name="Path 52106" d="M281.118,133.507H249.629a.712.712,0,0,1-.712-.712V90.545a.712.712,0,0,1,.712-.712h31.489a.712.712,0,0,1,.712.712v42.25A.712.712,0,0,1,281.118,133.507Zm-30.777-1.424h30.065V91.257H250.341v40.825Z" transform="translate(-248.917 -89.833)" fill="#1980ff"/>
      </g>
      <g id="Group_33795" data-name="Group 33795" transform="translate(46.059 42.98)">
        <path id="Path_52107" data-name="Path 52107" d="M249.628,133.507a.712.712,0,0,1-.57-1.138l31.489-42.25a.712.712,0,1,1,1.142.852L250.2,133.22A.712.712,0,0,1,249.628,133.507Z" transform="translate(-248.917 -89.833)" fill="#1980ff"/>
      </g>
      <g id="Group_33796" data-name="Group 33796" transform="translate(46.059 42.979)">
        <path id="Path_52108" data-name="Path 52108" d="M281.118,133.507a.708.708,0,0,1-.571-.286l-31.489-42.25a.712.712,0,1,1,1.142-.852l31.489,42.25a.712.712,0,0,1-.571,1.138Z" transform="translate(-248.917 -89.832)" fill="#1980ff"/>
      </g>
      <g id="Group_33797" data-name="Group 33797" transform="translate(46.059 33.487)">
        <path id="Path_52109" data-name="Path 52109" d="M377.8,84.591H249.629a.712.712,0,0,1,0-1.424H377.8a.712.712,0,0,1,0,1.424Z" transform="translate(-248.917 -83.167)" fill="#1980ff"/>
      </g>
      <g id="Group_33798" data-name="Group 33798" transform="translate(95.428 47.728)">
        <path id="Path_52110" data-name="Path 52110" d="M314.2,94.591H284.3a.712.712,0,0,1,0-1.424H314.2a.712.712,0,0,1,0,1.424Z" transform="translate(-283.583 -93.167)" fill="#1980ff"/>
      </g>
      <g id="Group_33799" data-name="Group 33799" transform="translate(95.428 64.106)">
        <path id="Path_52111" data-name="Path 52111" d="M342.684,106.091H284.3a.712.712,0,1,1,0-1.424h58.389a.712.712,0,1,1,0,1.424Z" transform="translate(-283.583 -104.667)" fill="#1980ff"/>
      </g>
      <g id="Group_33800" data-name="Group 33800" transform="translate(95.429 80.007)">
        <path id="Path_52112" data-name="Path 52112" d="M343.159,117.257H284.3a.712.712,0,0,1,0-1.424h58.863a.712.712,0,1,1,0,1.424Z" transform="translate(-283.584 -115.833)" fill="#1980ff"/>
      </g>
      <g id="Group_33801" data-name="Group 33801" transform="translate(104.448 154.169)">
        <path id="Path_52113" data-name="Path 52113" d="M290.629,241.381a.712.712,0,0,1-.712-.712V168.62a.712.712,0,0,1,1.424,0v72.049A.712.712,0,0,1,290.629,241.381Z" transform="translate(-289.917 -167.908)" fill="#1980ff"/>
      </g>
      <g id="Group_33804" data-name="Group 33804" transform="translate(39.253 93.651)">
        <g id="Group_33802" data-name="Group 33802" transform="translate(9.791)">
          <path id="Path_52114" data-name="Path 52114" d="M251.725,157.476a.712.712,0,0,1-.5-1.222c5.157-5.031,11.52-14.351,12.546-30.174a.712.712,0,0,1,1.421.091c-1.055,16.273-7.638,25.9-12.972,31.1A.715.715,0,0,1,251.725,157.476Z" transform="translate(-251.013 -125.413)" fill="#00236e"/>
        </g>
        <g id="Group_33803" data-name="Group 33803" transform="translate(0 26.127)">
          <path id="Path_52115" data-name="Path 52115" d="M254.446,143.759l-10.308,12.215,15.036-5.424Z" transform="translate(-244.138 -143.759)" fill="#00236e"/>
        </g>
      </g>
      <g id="Group_33805" data-name="Group 33805" transform="translate(49.382 160.636)">
        <path id="Path_52116" data-name="Path 52116" d="M294.482,173.873h-42.52a.712.712,0,1,1,0-1.424h42.52a.712.712,0,0,1,0,1.424Z" transform="translate(-251.25 -172.449)" fill="#1980ff"/>
      </g>
      <g id="Group_33806" data-name="Group 33806" transform="translate(49.382 172.504)">
        <path id="Path_52117" data-name="Path 52117" d="M294.482,205.064h-42.52a.712.712,0,0,1-.712-.712V181.5a.712.712,0,0,1,.712-.712h42.52a.712.712,0,0,1,.712.712v22.857A.71.71,0,0,1,294.482,205.064Zm-41.808-1.424h41.1V182.207h-41.1Z" transform="translate(-251.25 -180.783)" fill="#1980ff"/>
      </g>
      <g id="Group_33807" data-name="Group 33807" transform="translate(49.383 172.503)">
        <path id="Path_52118" data-name="Path 52118" d="M294.482,205.065a.7.7,0,0,1-.336-.085l-42.52-22.857a.712.712,0,0,1,.674-1.255l42.52,22.857a.713.713,0,0,1-.337,1.34Z" transform="translate(-251.251 -180.782)" fill="#1980ff"/>
      </g>
      <g id="Group_33808" data-name="Group 33808" transform="translate(49.38 172.505)">
        <path id="Path_52119" data-name="Path 52119" d="M251.962,205.064a.712.712,0,0,1-.338-1.339l42.52-22.857a.712.712,0,1,1,.674,1.255L252.3,204.98A.7.7,0,0,1,251.962,205.064Z" transform="translate(-251.249 -180.783)" fill="#1980ff"/>
      </g>
      <g id="Group_33809" data-name="Group 33809" transform="translate(49.382 207.373)">
        <path id="Path_52120" data-name="Path 52120" d="M279.008,206.691H251.962a.712.712,0,1,1,0-1.424h27.046a.712.712,0,0,1,0,1.424Z" transform="translate(-251.25 -205.267)" fill="#1980ff"/>
      </g>
      <g id="Group_33810" data-name="Group 33810" transform="translate(49.382 217.673)">
        <path id="Path_52121" data-name="Path 52121" d="M294.482,213.924h-42.52a.712.712,0,1,1,0-1.424h42.52a.712.712,0,0,1,0,1.424Z" transform="translate(-251.25 -212.5)" fill="#1980ff"/>
      </g>
      <g id="Group_33811" data-name="Group 33811" transform="translate(126.807 160.636)">
        <path id="Path_52122" data-name="Path 52122" d="M346.857,194.415H306.329a.712.712,0,0,1-.712-.712V173.161a.712.712,0,0,1,.712-.712h40.528a.712.712,0,0,1,.712.712V193.7A.712.712,0,0,1,346.857,194.415Zm-39.817-1.424h39.1V173.873h-39.1Z" transform="translate(-305.617 -172.449)" fill="#1980ff"/>
      </g>
      <g id="Group_33812" data-name="Group 33812" transform="translate(126.805 160.635)">
        <path id="Path_52123" data-name="Path 52123" d="M346.856,194.415a.708.708,0,0,1-.322-.077L306.006,173.8a.712.712,0,0,1,.644-1.27l40.528,20.542a.712.712,0,0,1-.322,1.347Z" transform="translate(-305.616 -172.448)" fill="#1980ff"/>
      </g>
      <g id="Group_33813" data-name="Group 33813" transform="translate(126.807 160.635)">
        <path id="Path_52124" data-name="Path 52124" d="M306.329,194.415a.712.712,0,0,1-.322-1.347l40.528-20.542a.712.712,0,0,1,.644,1.27l-40.528,20.542A.708.708,0,0,1,306.329,194.415Z" transform="translate(-305.617 -172.448)" fill="#1980ff"/>
      </g>
      <g id="Group_33814" data-name="Group 33814" transform="translate(126.806 192.827)">
        <path id="Path_52125" data-name="Path 52125" d="M322.9,202.824H306.328a.712.712,0,0,1-.712-.712v-6.347a.712.712,0,0,1,.712-.712H322.9a.712.712,0,0,1,.712.712v6.347A.711.711,0,0,1,322.9,202.824ZM307.04,201.4h15.144v-4.923H307.04Z" transform="translate(-305.616 -195.053)" fill="#1980ff"/>
      </g>
      <g id="Group_33815" data-name="Group 33815" transform="translate(150.494 192.828)">
        <path id="Path_52126" data-name="Path 52126" d="M339.8,202.532h-16.84a.712.712,0,0,1-.712-.712v-6.054a.712.712,0,0,1,.712-.712H339.8a.712.712,0,0,1,.712.712v6.054A.712.712,0,0,1,339.8,202.532Zm-16.128-1.424H339.09v-4.63H323.674Z" transform="translate(-322.25 -195.054)" fill="#1980ff"/>
      </g>
      <g id="Group_33818" data-name="Group 33818" transform="translate(147.071 128.364)">
        <g id="Group_33816" data-name="Group 33816" transform="translate(0 3.361)">
          <path id="Path_52127" data-name="Path 52127" d="M320.558,186.346a.712.712,0,0,1-.712-.712c-.006-25.962,12.8-32.538,23.554-33.483a.712.712,0,1,1,.125,1.418c-10.155.893-22.26,7.18-22.253,32.064A.714.714,0,0,1,320.558,186.346Z" transform="translate(-319.846 -152.148)" fill="#00236e"/>
        </g>
        <g id="Group_33817" data-name="Group 33817" transform="translate(20.473)">
          <path id="Path_52128" data-name="Path 52128" d="M334.222,158.039l15.705-2.966-15.086-5.285Z" transform="translate(-334.222 -149.788)" fill="#00236e"/>
        </g>
      </g>
      <g id="Group_33819" data-name="Group 33819" transform="translate(126.065 207.969)">
        <path id="Path_52129" data-name="Path 52129" d="M347.82,222.155H305.808a.712.712,0,0,1-.712-.712V206.4a.712.712,0,0,1,.712-.712H347.82a.712.712,0,0,1,.712.712v15.044A.712.712,0,0,1,347.82,222.155Zm-41.3-1.424h40.588V207.11H306.52Z" transform="translate(-305.096 -205.686)" fill="#1980ff"/>
      </g>
      <g id="Group_33822" data-name="Group 33822" transform="translate(149.462 220.859)">
        <g id="Group_33820" data-name="Group 33820">
          <path id="Path_52130" data-name="Path 52130" d="M349.691,242.077a.709.709,0,0,1-.488-.194l-27.454-25.918a.712.712,0,0,1,.977-1.037l27.454,25.918a.712.712,0,0,1-.488,1.23Z" transform="translate(-321.525 -214.737)" fill="#00236e"/>
        </g>
        <g id="Group_33821" data-name="Group 33821" transform="translate(23.273 21.683)">
          <path id="Path_52131" data-name="Path 52131" d="M337.867,235.979l14.065,7.592-8.384-13.609Z" transform="translate(-337.867 -229.962)" fill="#00236e"/>
        </g>
      </g>
      <g id="Group_33823" data-name="Group 33823" transform="translate(191.217 261.577)">
        <path id="Path_52132" data-name="Path 52132" d="M369.272,247.277a4.162,4.162,0,0,1-2.951-1.221l-.474-.474a2.75,2.75,0,0,0-3.888,0l-.108.108a4.178,4.178,0,0,1-5.9,0,2.816,2.816,0,0,0-3.888,0,.712.712,0,0,1-1.007-1.007,4.275,4.275,0,0,1,5.9,0,2.753,2.753,0,0,0,3.888,0l.108-.108a4.178,4.178,0,0,1,5.9,0l.474.474a2.751,2.751,0,0,0,3.888,0l.5-.5a4.178,4.178,0,0,1,5.9,0,.712.712,0,1,1-1.007,1.007,2.751,2.751,0,0,0-3.888,0l-.5.5A4.171,4.171,0,0,1,369.272,247.277Z" transform="translate(-350.845 -243.329)" fill="#00236e"/>
      </g>
      <g id="Group_33824" data-name="Group 33824" transform="translate(191.217 251.258)">
        <path id="Path_52133" data-name="Path 52133" d="M369.272,240.031a4.162,4.162,0,0,1-2.951-1.221l-.474-.474a2.75,2.75,0,0,0-3.888,0l-.108.108a4.178,4.178,0,0,1-5.9,0,2.751,2.751,0,0,0-3.888,0,.712.712,0,0,1-1.007-1.007,4.178,4.178,0,0,1,5.9,0,2.751,2.751,0,0,0,3.888,0l.108-.108a4.178,4.178,0,0,1,5.9,0l.474.474a2.753,2.753,0,0,0,3.888,0l.5-.5a4.178,4.178,0,0,1,5.9,0,.712.712,0,1,1-1.007,1.007,2.753,2.753,0,0,0-3.888,0l-.5.5A4.171,4.171,0,0,1,369.272,240.031Z" transform="translate(-350.845 -236.083)" fill="#00236e"/>
      </g>
      <g id="Group_33825" data-name="Group 33825" transform="translate(192.153 145.127)">
        <path id="Path_52134" data-name="Path 52134" d="M369.929,165.507a4.162,4.162,0,0,1-2.951-1.22l-.474-.474a2.75,2.75,0,0,0-3.888,0l-.108.108a4.178,4.178,0,0,1-5.9,0,2.751,2.751,0,0,0-3.888,0,.712.712,0,1,1-1.007-1.007,4.178,4.178,0,0,1,5.9,0,2.751,2.751,0,0,0,3.888,0l.108-.108a4.178,4.178,0,0,1,5.9,0l.474.474a2.753,2.753,0,0,0,3.888,0l.5-.5a4.178,4.178,0,0,1,5.9,0,.712.712,0,1,1-1.007,1.007,2.751,2.751,0,0,0-3.888,0l-.5.5A4.171,4.171,0,0,1,369.929,165.507Z" transform="translate(-351.502 -161.559)" fill="#00236e"/>
      </g>
      <g id="Group_33826" data-name="Group 33826" transform="translate(192.153 131.247)">
        <path id="Path_52135" data-name="Path 52135" d="M369.929,155.761a4.162,4.162,0,0,1-2.951-1.22l-.474-.474a2.75,2.75,0,0,0-3.888,0l-.108.108a4.178,4.178,0,0,1-5.9,0,2.751,2.751,0,0,0-3.888,0,.712.712,0,0,1-1.007-1.007,4.178,4.178,0,0,1,5.9,0,2.751,2.751,0,0,0,3.888,0l.108-.108a4.178,4.178,0,0,1,5.9,0l.474.474a2.753,2.753,0,0,0,3.888,0l.5-.5a4.178,4.178,0,0,1,5.9,0,.712.712,0,1,1-1.007,1.007,2.751,2.751,0,0,0-3.888,0l-.5.5A4.165,4.165,0,0,1,369.929,155.761Z" transform="translate(-351.502 -151.813)" fill="#00236e"/>
      </g>
      <g id="Group_33828" data-name="Group 33828" transform="translate(176.656 53.033)">
        <path id="Path_52136" data-name="Path 52136" d="M340.62,96.892V120.46h14.241l6.053-4.984V96.892Z" transform="translate(-340.62 -96.892)" fill="#feac00"/>
        <g id="Group_33827" data-name="Group 33827" transform="translate(1.468 6.888)">
          <path id="Path_52137" data-name="Path 52137" d="M349.7,105.285a4.162,4.162,0,0,1-2.951-1.22,2.751,2.751,0,0,0-3.888,0,.712.712,0,1,1-1.007-1.007,4.178,4.178,0,0,1,5.9,0,2.751,2.751,0,0,0,3.888,0l.108-.108a4.178,4.178,0,0,1,5.9,0l.474.474a.712.712,0,0,1-1.007,1.007l-.474-.474a2.751,2.751,0,0,0-3.888,0l-.108.108A4.173,4.173,0,0,1,349.7,105.285Z" transform="translate(-341.651 -101.729)" fill="#00236e"/>
        </g>
        <path id="Path_52138" data-name="Path 52138" d="M356.673,109.941h-4.13a1.424,1.424,0,0,0-1.411,1.232l-.511,3.753Z" transform="translate(-336.379 -91.358)" fill="#ff9201"/>
      </g>
      <g id="Group_33830" data-name="Group 33830" transform="translate(56.845 227.075)">
        <path id="Path_52139" data-name="Path 52139" d="M256.491,219.1V242.67h14.241l6.053-4.984V219.1Z" transform="translate(-256.491 -219.102)" fill="#feac00"/>
        <g id="Group_33829" data-name="Group 33829" transform="translate(1.468 6.888)">
          <path id="Path_52140" data-name="Path 52140" d="M265.576,227.5a4.162,4.162,0,0,1-2.951-1.221,2.752,2.752,0,0,0-3.888,0,.712.712,0,0,1-1.007-1.007,4.178,4.178,0,0,1,5.9,0,2.751,2.751,0,0,0,3.888,0l.108-.108a4.178,4.178,0,0,1,5.9,0l.474.474A.712.712,0,0,1,273,226.641l-.474-.474a2.751,2.751,0,0,0-3.888,0l-.108.108A4.171,4.171,0,0,1,265.576,227.5Z" transform="translate(-257.522 -223.939)" fill="#00236e"/>
        </g>
        <path id="Path_52141" data-name="Path 52141" d="M272.544,232.151h-4.13A1.424,1.424,0,0,0,267,233.383l-.511,3.753Z" transform="translate(-252.25 -213.568)" fill="#ff9201"/>
      </g>
    </g>
    <g id="man" transform="translate(158.159 179.618)">
      <path id="Path_52142" data-name="Path 52142" d="M227.423,202.263s1.669-5.249,3.219-6.755,12.246-5,15.126-8.988.612-18.994-2.008-17.8-1.652,10.816-1.652,10.816-11.023-.309-13.179,2.858-8.9,13.347-8.9,13.347Z" transform="translate(-75.012 -112.254)" fill="#fe99c0"/>
      <path id="Path_52143" data-name="Path 52143" d="M244.217,194.612h0a2.226,2.226,0,0,1-3.022-1.146l-10.19-24.387-.127-6.172,4.373,4.443,10.054,24.41A2.226,2.226,0,0,1,244.217,194.612Z" transform="translate(-70.409 -114.692)" fill="#00236e"/>
      <path id="Path_52144" data-name="Path 52144" d="M238.883,171.153c2.042,1.9-1.8,8-6.053,10.8l-6.554-.473S236.139,168.6,238.883,171.153Z" transform="translate(-72.36 -111.337)" fill="#fe99c0"/>
      <path id="Path_52145" data-name="Path 52145" d="M160.28,159.5l-1.621,18.212,20.9,4.1.723-10.207c3.6.508,6.283,1.277,7.142.363,1.582-1.689,2.541-9.395,2.541-9.395S190.3,152,188,143.849c-.944-3.35-5.363-4.744-12.43-3.854-7.065.867-12.937,3.052-14.619,7.853C159.293,152.668,160.28,159.5,160.28,159.5Z" transform="translate(-101.039 -124.521)" fill="#fe99c0"/>
      <path id="Path_52146" data-name="Path 52146" d="M154.143,149.132c-.615,11.752,2.645,19.337,7.955,22.35s13.864-5.077,13.924-7.405-9.1-5.278-2.83-10.924c9.207-8.29,1.173,25.714,15.754,26.477,5.97.313,5.558-13.475,3.633-14s-2.257,4.032-4.747,3.986c-5.54-.1-8.418-19.567-5.078-19.842,7.663-.629,13.128,2.128,13.623-7.311.244-4.651-.879-8.491-3.5-10.187-2.909-1.886-16.094-4.389-23.371-2.612C162.05,131.479,154.654,139.391,154.143,149.132Z" transform="translate(-102.986 -129.051)" fill="#00236e"/>
      <path id="Path_52147" data-name="Path 52147" d="M171.5,166.4s-22.252,6.231-27.77,17.268-16.021,46.448-15.309,50.727,29.729,53.056,29.729,53.056l2.492-23.5-12.817-30.441s9.257-20.472,11.927-30.619S171.5,166.4,171.5,166.4Z" transform="translate(-113.879 -113.209)" fill="#1980ff"/>
      <path id="Path_52148" data-name="Path 52148" d="M176.408,370.9v13.707h35.6c0-6.853-13.351-4.361-17.256-9.742-1.423-1.961-3.038-3.965-3.038-3.965Z" transform="translate(-93.511 -26.475)" fill="#00236e"/>
      <path id="Path_52149" data-name="Path 52149" d="M153.8,370.361v13.707H118.2c0-6.853,13.351-4.361,17.256-9.742,1.423-1.961,3.038-3.965,3.038-3.965Z" transform="translate(-118.199 -26.706)" fill="#00236e"/>
      <path id="Path_52150" data-name="Path 52150" d="M192.56,242.654l-44.8,182.227H132.449l22.016-180.625Z" transform="translate(-112.155 -80.87)" fill="#00236e"/>
      <path id="Path_52151" data-name="Path 52151" d="M162.322,244.779s-6.447,52.7-2.637,85.789l13.683-55.655Z" transform="translate(-101.115 -79.968)" fill="#00236e"/>
      <path id="Path_52152" data-name="Path 52152" d="M201.13,245.758l-2.937,180.33H182.885S161.141,278.335,161.141,242.47Z" transform="translate(-99.986 -80.948)" fill="#033593"/>
      <path id="Path_52153" data-name="Path 52153" d="M183.908,166.451c10.681,0,26.524,10.5,29.729,17.8s16.422,37.927,16.422,37.927L252.434,193.6l10.879,10.728s-30.122,48.433-42.729,47.123c-6.349-.659-15.136-24.3-15.136-24.3l3.116,50.913-58.833-1.424s1.246-41.3,0-50.378-6.765-21.006-6.053-32.221,17.8-27.236,21.362-27.592S183.908,166.451,183.908,166.451Z" transform="translate(-107.42 -113.256)" fill="#1980ff"/>
      <path id="Path_52154" data-name="Path 52154" d="M189,216.883l-6.525-26.372s-1.36,32.551,8.19,53.583Z" transform="translate(-90.968 -102.985)" fill="#033593"/>
    </g>
    <g id="wall_plant" data-name="wall plant" transform="translate(589.914 88.004)">
      <path id="Path_52155" data-name="Path 52155" d="M423.871,133.441s9.829,39.512,28.712,37.046c16.9-2.207,21.316-26.907,34.133-26.95s13.917,16.916,25.828,16.269,38-26.365,38-26.365Z" transform="translate(-420.311 -35.575)" fill="#dfedff"/>
      <g id="Group_33831" data-name="Group 33831" transform="translate(11.283 34.407)">
        <path id="Path_52156" data-name="Path 52156" d="M447.968,88.881s-6.011,3-6.011,12.021,6.011,12.021,6.011,12.021,6.011-3,6.011-12.021S447.968,88.881,447.968,88.881Z" transform="translate(-423.923 -88.881)" fill="#1063dc"/>
        <path id="Path_52157" data-name="Path 52157" d="M434.506,94.093s-2.125,6.376,4.25,12.75,12.75,4.25,12.75,4.25,2.125-6.376-4.25-12.75S434.506,94.093,434.506,94.093Z" transform="translate(-427.227 -86.815)" fill="#1980ff"/>
        <path id="Path_52158" data-name="Path 52158" d="M463.641,94.093s2.125,6.376-4.25,12.75-12.75,4.25-12.75,4.25-2.125-6.376,4.25-12.75S463.641,94.093,463.641,94.093Z" transform="translate(-422.081 -86.815)" fill="#1980ff"/>
        <path id="Path_52159" data-name="Path 52159" d="M475.617,104.181H431.058a23.935,23.935,0,0,0-1.764,9.016H477.38A23.917,23.917,0,0,0,475.617,104.181Z" transform="translate(-429.294 -82.392)" fill="#a4ccff"/>
        <path id="Path_52160" data-name="Path 52160" d="M440.717,130.975h25.241a24.024,24.024,0,0,0,11.422-20.463H429.294A24.028,24.028,0,0,0,440.717,130.975Z" transform="translate(-429.294 -79.707)" fill="#bcdafe"/>
      </g>
      <g id="Group_33832" data-name="Group 33832" transform="translate(84.992)">
        <path id="Path_52161" data-name="Path 52161" d="M508.609,76.039l-.159-1.692-4.878.454a31.521,31.521,0,0,1,7.823-7.384l-.919-1.43a30.668,30.668,0,0,0-4.493,3.6V64.721h-1.7V71.3a44.588,44.588,0,0,0-6.146,8.69l-2.408-5.7-1.565.659,2.942,6.961a70.254,70.254,0,0,0-4.435,11.356l-2.978-4.146-1.38.991,3.768,5.245a65.825,65.825,0,0,0-1.512,7.014l1.682.242a75.139,75.139,0,0,1,3.392-12.767l5.8-1.971-.547-1.608-4.48,1.521a56.1,56.1,0,0,1,5.816-11.162Z" transform="translate(-477.97 -64.721)" fill="#0dbf95"/>
        <path id="Path_52162" data-name="Path 52162" d="M499.16,89.957h-9.055c0,23.834-9.055,32.487-9.055,50.934h27.165C508.215,122.443,499.16,113.791,499.16,89.957Z" transform="translate(-481.051 -54.018)" fill="#bcdafe"/>
      </g>
      <rect id="Rectangle_4679" data-name="Rectangle 4679" width="150.389" height="11.783" transform="translate(0 86.083)" fill="#a4ccff"/>
    </g>
    <g id="woman" transform="translate(488.387 190.289)">
      <path id="Path_52163" data-name="Path 52163" d="M350.08,184.866l6.629,22.617,13.666-4.006,4.406-6.485-5.227-17.833Z" transform="translate(-350.08 -118.47)" fill="#0dbf95"/>
      <path id="Path_52164" data-name="Path 52164" d="M368.91,191.68l-3.963,1.162a1.425,1.425,0,0,0-1.008,1.579l.565,3.745Z" transform="translate(-344.209 -113.159)" fill="#08a078"/>
      <path id="Path_52165" data-name="Path 52165" d="M440.878,344.138s5.174,18.227,3.119,22.034-11.178,11.409-11.178,11.409l1.23,3.5,30.536-10.737s-1.652-3.117-4.094-8.738S453.5,339.7,453.5,339.7Z" transform="translate(-314.988 -50.381)" fill="#fe99c0"/>
      <path id="Path_52166" data-name="Path 52166" d="M468.374,366.166l-40.555,14.26c-.675-1.921,3.31-7.254,7.152-8.606s4.362-.531,9.062-2.955,9.461-12.347,18.655-15.58C466.812,357.771,468.126,360.923,468.374,366.166Z" transform="translate(-317.141 -44.619)" fill="#00236e"/>
      <path id="Path_52167" data-name="Path 52167" d="M424.847,348.725s-1.165,18.912-4.366,21.822-14.33,7.055-14.33,7.055v3.71H438.52s-.524-3.489-.964-9.6.675-22.985.675-22.985H424.847Z" transform="translate(-326.299 -46.553)" fill="#fe99c0"/>
      <path id="Path_52168" data-name="Path 52168" d="M442.4,377.218H399.409c0-2.036,5.528-5.746,9.6-5.746s4.291.946,9.529.218,13.021-8.511,22.767-8.511C443.708,368.78,443.9,372.189,442.4,377.218Z" transform="translate(-329.158 -40.422)" fill="#00236e"/>
      <path id="Path_52169" data-name="Path 52169" d="M421.011,238.308s-14.2,44.57-14.132,73.764c.016,6.639,45.346,93.23,45.346,93.23l18.32-7.837L446.319,308.19,452.69,233.8Z" transform="translate(-325.99 -95.293)" fill="#00236e"/>
      <path id="Path_52170" data-name="Path 52170" d="M436.165,178.792l-23.527,33.854L381.89,189.819s-8.619-4.814-9.939-5.2-5.732-2.334-6.742-1.558l2.219,8.136s-4.771,2.422-4.509,3.8c.2,1.028,3.609.564,4.6.682,2.33.278,8.54-.654,8.54-.654s33.544,35.717,37.271,35.8,24.381-26.244,24.381-26.244Z" transform="translate(-344.639 -118.626)" fill="#fe99c0"/>
      <path id="Path_52171" data-name="Path 52171" d="M459.584,236.319s4.969,4.193,4.969,26.711c0,17.548-23.294,147.528-23.294,147.528h-25s5.772-85.255,5.974-92.864,4.362-82.128,4.362-82.128Z" transform="translate(-322.013 -94.546)" fill="#033593"/>
      <path id="Path_52172" data-name="Path 52172" d="M425.783,175.822s-7.121,1.589-9.683,3.959c-3.587,3.318-8.546,18.038-7.149,24.716s12.836,20.3,12.836,33.347a238.336,238.336,0,0,1-1.552,25.623l42.55-1.242s-2.33-14.753-2.951-25.933,8.774-41.774,5.668-49.693-19.023-12.112-19.023-12.112Z" transform="translate(-325.214 -120.452)" fill="#0dbf95"/>
      <path id="Path_52173" data-name="Path 52173" d="M453.656,182.169c14.753,1.683-.6,52.8-.6,52.8L441.45,280.188l-11.218-2.1,9.6-48.7S443.415,181,453.656,182.169Z" transform="translate(-316.085 -117.202)" fill="#fe99c0"/>
      <path id="Path_52174" data-name="Path 52174" d="M409.848,187.948l50.977-6.523s10.2-37.127-12.666-38.271c0,0-4.27-6.611-16.066-6.611C417.571,136.543,398.935,153.238,409.848,187.948Z" transform="translate(-326.121 -136.544)" fill="#00236e"/>
      <path id="Path_52175" data-name="Path 52175" d="M423.546,148.266c-4.016,0-7.541,1.923-8.5,8.429a31.612,31.612,0,0,0,2.78,18.512c2.314,4.653,8.187,2.81,8.187,2.81-.309,7.273-2.777,8.925-2.777,8.925s-4.328,14.5,6.177,14.5,14.519-15.839,14.519-15.839c-4.016-8.264-3.09-19.82-3.09-19.82s3.713-.168,3.862-5.124c.154-5.124-5.343-4.977-5.561-4.959C429.417,156.53,429.418,148.266,423.546,148.266Z" transform="translate(-322.673 -131.572)" fill="#fe99c0"/>
      <g id="Group_33833" data-name="Group 33833" transform="translate(110.859 158.777)">
        <rect id="Rectangle_4680" data-name="Rectangle 4680" width="3.181" height="17.423" transform="translate(0 3.127) rotate(-79.403)" fill="#1063dc"/>
      </g>
    </g>
  </g>
</svg>
